<?xml version="1.0" encoding="UTF-8" standalone="no"?>
<!-- Created with Inkscape (http://www.inkscape.org/) -->

<svg
   width="149.99455mm"
   height="74.98613mm"
   viewBox="0 0 149.99455 74.98613"
   version="1.1"
   id="svg1"
   inkscape:version="1.4.2 (f4327f4, 2025-05-13)"
   sodipodi:docname="Cloud.svg"
   inkscape:export-filename="Cloud.png"
   inkscape:export-xdpi="320"
   inkscape:export-ydpi="320"
   xmlns:inkscape="http://www.inkscape.org/namespaces/inkscape"
   xmlns:sodipodi="http://sodipodi.sourceforge.net/DTD/sodipodi-0.dtd"
   xmlns="http://www.w3.org/2000/svg"
   xmlns:svg="http://www.w3.org/2000/svg">
  <sodipodi:namedview
     id="namedview1"
     pagecolor="#ffffff"
     bordercolor="#000000"
     borderopacity="0.25"
     inkscape:showpageshadow="2"
     inkscape:pageopacity="0.0"
     inkscape:pagecheckerboard="0"
     inkscape:deskcolor="#d1d1d1"
     inkscape:document-units="mm"
     inkscape:zoom="0.68862935"
     inkscape:cx="371.02688"
     inkscape:cy="256.30624"
     inkscape:window-width="1920"
     inkscape:window-height="991"
     inkscape:window-x="-9"
     inkscape:window-y="-9"
     inkscape:window-maximized="1"
     inkscape:current-layer="layer1" />
  <defs
     id="defs1" />
  <g
     inkscape:label="Layer 1"
     inkscape:groupmode="layer"
     id="layer1"
     transform="translate(-6.9176048,-80.555354)">
    <g
       id="g2"
       transform="matrix(0.85822977,0,0,0.89240622,0.98302608,8.6647371)">
      <path
         style="fill:#000000;fill-opacity:1;stroke:#000000;stroke-width:0.264583;stroke-opacity:1"
         id="path1"
         d="m 41.433294,119.75224 c 0.666417,-1.85797 1.582656,-3.61361 2.505202,-5.35424 1.157706,-2.46282 2.688646,-4.7014 4.378566,-6.82312 1.565656,-2.13447 3.78382,-3.41942 6.135097,-4.51593 2.330162,-0.98836 4.871424,-1.14951 7.368096,-1.26029 2.77055,0.17841 5.518904,0.7979 8.111522,1.78399 -0.694807,-0.56162 3.040287,1.56556 2.31072,1.11837 -0.735873,-0.45104 -1.480942,-0.88958 -2.249771,-1.28183 -0.363395,-0.1854 0.698384,0.42331 1.030732,0.6599 0.819348,0.58327 1.21965,0.98195 1.966243,1.65346 1.48736,1.27076 2.373977,2.93034 3.184088,4.66602 1.169469,0.71635 2.256179,1.58981 3.508407,2.14904 0.464741,0.20755 1.260229,-3.57166 1.31227,-3.82492 0.433205,-2.0598 1.00875,-4.08663 1.581592,-6.11107 0.754512,-1.82401 1.746374,-3.546446 2.884567,-5.1567 1.370144,-2.144723 3.057263,-4.035084 4.950139,-5.725573 1.922323,-1.532472 3.780719,-3.225202 5.918216,-4.464153 0.404567,-0.234498 0.829347,-0.432247 1.244021,-0.648372 2.687159,-1.189164 5.494619,-1.990548 8.383979,-2.488089 2.54592,-0.390879 4.83716,-0.479411 7.37213,-0.01632 1.12364,0.348564 1.46462,0.409268 2.53491,0.92507 0.39374,0.189751 1.53643,0.834096 1.14908,0.631621 -0.7228,-0.377819 -1.38135,-0.901189 -2.15554,-1.157718 -0.39591,-0.131183 0.66932,0.498856 0.98604,0.770207 0.33137,0.283898 0.63756,0.595937 0.95634,0.893905 1.24706,1.566389 2.31179,3.291203 2.99014,5.181722 0.18841,0.525087 0.53717,1.777765 0.70063,2.350831 0.0254,0.097 0.33057,1.325684 0.43819,1.530511 0.0704,0.133919 0.16571,0.277082 0.30503,0.336034 1.31387,0.555959 2.60513,1.25381 4.01198,1.490689 0.3252,0.05476 0.47054,-0.462224 0.70221,-0.696931 0.26154,-0.264969 0.51823,-0.534688 0.77734,-0.802031 2.31746,-2.772431 5.00067,-5.175681 7.9203,-7.291237 2.34628,-1.815491 5.0495,-2.969191 7.87707,-3.787079 2.72661,-0.654288 5.51411,-1.023607 8.29446,-1.364197 3.73192,-0.507756 7.47268,-0.24261 11.18166,0.277141 0.94151,0.182856 1.58359,0.255071 2.47006,0.628356 0.41733,0.175733 1.60419,0.840975 1.20524,0.626761 -0.6467,-0.347242 -1.39949,-1.513054 -1.94854,-1.025872 -0.51852,0.4601 1.07123,0.881605 1.57777,1.354863 0.52991,0.495088 1.01932,1.031822 1.52898,1.547735 1.83197,2.000274 3.67327,4.03129 5.22182,6.266159 0.87186,1.258255 1.09918,1.749541 1.85288,3.106338 1.52746,3.086431 2.52814,6.404579 3.55016,9.684889 0.92272,2.71446 0.79839,5.0116 0.45377,7.78899 -0.38953,2.09869 -1.06207,4.12717 -1.9844,6.04845 -1.34322,2.56707 -3.48407,4.51607 -5.6163,6.41727 -1.97338,1.76396 -4.22028,3.17262 -6.5532,4.40629 -1.70088,0.91363 -3.3719,1.87128 -5.15475,2.6165 -1.6734,0.59974 -0.37043,0.13965 -1.87731,0.65558 -0.20942,0.0717 -0.50256,0.0353 -0.62717,0.21825 -0.40955,0.60129 0.5928,1.09816 0.84171,1.24092 1.48256,0.85028 3.00348,1.63184 4.50522,2.44776 0.54632,0.28207 2.99927,1.51835 3.40796,1.86223 0.37931,0.31917 -1.61449,-1.05928 -1.33901,-0.64715 0.37715,0.56421 1.12254,0.76313 1.67758,1.15366 1.4193,0.99863 1.33711,0.95849 2.61456,1.95816 1.2063,1.07013 2.64433,2.30998 2.97525,3.98885 0.0432,0.21899 0.0255,0.44567 0.0383,0.6685 -0.0985,0.58205 -0.1038,0.85501 -0.37754,1.40593 -0.73778,1.48486 -2.04441,2.71286 -3.17177,3.89151 -1.84423,1.85754 -3.92034,3.46836 -6.17676,4.79652 -1.60977,0.94753 -2.46223,1.29879 -4.16156,2.0972 -4.87328,2.15204 -10.15966,2.67833 -15.41096,3.03488 -7.32904,0.21746 -14.65763,0.43666 -21.98712,0.66127 -7.54306,0.39938 -15.0014,-0.002 -22.51258,-0.6507 -5.109909,-0.46277 -10.217317,-0.95157 -15.326715,-1.42043 -5.022595,-0.45102 -10.063786,-0.5716 -15.103231,-0.64196 -5.566222,0.0844 -11.120067,-0.20804 -16.653012,-0.79858 -4.982917,-0.55694 -9.861759,-1.73946 -14.762083,-2.76227 -3.008585,-0.66876 -6.044814,-1.2289 -9.024932,-2.02119 -0.802734,-0.21341 -3.20002,-0.92318 -4.016137,-1.16295 -2.376632,-0.83406 -4.838386,-1.52635 -7.09161,-2.6749 -0.456859,-0.23287 -1.801059,-0.97953 -1.338261,-0.75869 0.693715,0.33102 1.354775,0.72654 2.032162,1.0898 -1.176283,-0.8865 -2.376258,-1.88198 -3.177934,-3.14273 -0.929181,-1.46126 -1.346128,-3.13693 -1.774904,-4.7887 -0.7965722,-3.10377 -0.143944,-4.99052 1.206874,-7.7615 1.653881,-2.6692 4.113879,-4.7501 6.578737,-6.65124 2.234759,-1.95563 4.975916,-3.05767 7.68094,-4.18393 2.525112,-0.92357 5.086987,-1.74844 7.641608,-2.58769 1.647833,-0.5604 3.375964,-0.67572 5.100275,-0.74254 1.248315,-0.0342 2.43945,-0.31594 3.613311,-0.71499 0,0 -3.25185,-2.2039 -3.25185,-2.2039 v 0 c -1.136613,0.38439 -2.303812,0.61318 -3.507045,0.65515 -1.743246,0.0901 -3.486652,0.23626 -5.138943,0.84778 -2.531102,0.88014 -5.074031,1.72625 -7.587699,2.655 -2.739107,1.13497 -5.503829,2.26628 -7.751734,4.26031 -1.247263,0.99651 -2.427431,2.02454 -3.574317,3.13644 -0.813306,0.78849 -1.660901,1.58176 -2.3550991,2.48366 -0.2830597,0.36775 -0.5069676,0.77745 -0.7604514,1.16618 -1.3570159,2.8411 -2.1238715,4.83893 -1.2835757,8.02149 0.4283596,1.65243 0.8200614,3.43283 1.6939746,4.92386 0.7577503,1.29284 1.9726836,2.32725 3.1202936,3.25123 0.339062,0.20311 4.255428,2.64137 5.777063,3.37879 2.261642,1.09605 4.706792,1.77946 7.074315,2.59672 4.289007,1.24297 8.625864,2.27791 13.011528,3.12529 4.898642,1.01795 9.778368,2.19331 14.763155,2.71694 5.538443,0.55893 11.096381,0.81469 16.663797,0.76725 5.048691,0.0879 10.100635,0.22547 15.130779,0.69645 5.064877,0.4677 10.131425,0.92139 15.201905,1.3236 3.611966,0.27958 7.222756,0.58197 10.845706,0.68047 2.58147,0.0702 5.0586,0.0468 7.63927,-0.009 1.32111,-0.0286 2.64171,-0.0775 3.96256,-0.1162 7.37519,-0.23151 14.75186,-0.34515 22.12624,-0.57645 5.36055,-0.35154 10.5956,-0.87065 15.56457,-3.09172 1.68302,-0.79014 2.61876,-1.18138 4.2166,-2.11878 2.28762,-1.34207 4.40276,-2.96083 6.28881,-4.82444 1.2037,-1.1936 2.54731,-2.44894 3.35645,-3.96795 0.31028,-0.58248 0.33245,-0.90721 0.46026,-1.53219 -1.3e-4,-0.25562 0.0361,-0.51386 -2.6e-4,-0.76686 -0.25551,-1.77149 -1.73367,-3.12331 -2.98066,-4.24573 -3.98976,-3.12775 -8.32454,-5.79456 -12.84072,-8.09448 0.68871,0.438 1.40096,0.84103 2.06614,1.31401 0.24266,0.17255 -0.51561,-0.30355 -0.79392,-0.40939 -0.12813,-0.0487 -0.48368,0.0667 -0.40847,-0.0479 0.14726,-0.22442 2.24274,-0.71412 2.45428,-0.92664 1.7914,-0.74905 3.4957,-1.67802 5.17597,-2.64901 2.32058,-1.29235 4.58799,-2.70374 6.54151,-4.51982 2.1509,-1.956 4.3746,-3.89529 5.75696,-6.50268 0.97151,-1.94624 1.61678,-4.03395 2.03233,-6.16911 0.3073,-2.67384 0.50989,-5.35867 -0.41313,-7.95075 -1.0795,-3.29555 -2.07889,-6.64573 -3.58063,-9.777203 -0.70814,-1.325049 -0.9788,-1.922761 -1.82148,-3.150441 -1.55164,-2.26059 -3.43728,-4.289415 -5.25392,-6.332442 -0.49447,-0.514954 -2.35155,-2.509465 -2.98897,-2.943125 -0.37271,-0.253566 -4.13377,-2.679014 -5.78803,-3.302997 -0.87741,-0.330962 -1.55218,-0.398002 -2.47211,-0.553329 -3.72443,-0.463147 -7.47583,-0.650258 -11.21481,-0.184382 -2.80999,0.333806 -5.63913,0.649517 -8.37893,1.383387 -2.83968,0.871447 -5.54729,2.067237 -7.88995,3.933727 -2.90838,2.167038 -5.59288,4.604948 -8.03839,7.286683 -0.26309,0.258207 -0.51787,0.525169 -0.78928,0.77462 -0.22226,0.204283 -0.88579,0.355259 -0.69077,0.585687 0.7719,0.912022 1.99352,1.322528 2.93185,2.062226 0.11874,0.0936 -0.33704,0.0085 -0.44247,-0.09982 -0.16762,-0.172286 -0.49261,-1.465345 -0.51314,-1.538354 -0.38423,-1.263028 -0.70332,-2.572803 -1.25181,-3.778372 -0.63617,-1.398267 -1.5364,-2.672482 -2.38227,-3.945829 -2.17782,-2.145681 -3.04461,-2.464898 -6.27002,-4.33864 -1.17312,-0.681506 -2.45143,-1.153424 -3.7679,-1.468876 -0.40894,-0.06603 -0.81522,-0.151398 -1.22682,-0.198089 -2.06711,-0.234479 -4.15866,0.07142 -6.20531,0.334971 -2.904666,0.549304 -5.742301,1.367096 -8.442765,2.587318 -0.425948,0.224073 -0.864235,0.426114 -1.277842,0.672221 -0.81148,0.482849 -1.498291,1.052851 -2.252353,1.618398 -1.249043,0.936781 -2.50489,1.86486 -3.669922,2.907686 -1.922415,1.707285 -3.657917,3.597201 -5.063506,5.76008 -1.153218,1.655051 -2.158867,3.413924 -2.967532,5.263245 -0.535858,2.04449 -1.095634,4.08452 -1.563026,6.14556 -0.19748,0.89163 -0.396764,1.79504 -0.719209,2.65279 -0.06423,0.17085 -0.136374,0.34035 -0.230878,0.4965 -0.01201,0.0198 -0.08917,-0.0125 -0.06959,-5e-5 1.043374,0.66181 2.09994,1.30259 3.14991,1.95388 -0.385699,-0.71335 -0.679069,-1.47874 -1.084882,-2.18029 -0.571913,-0.98869 -1.335609,-1.85672 -2.142588,-2.657 -0.613868,-0.57116 -1.260112,-1.20323 -1.933384,-1.70743 -0.325986,-0.24412 -0.667912,-0.46756 -1.018223,-0.67528 -2.162357,-1.28216 -4.291092,-2.62695 -6.632339,-3.55514 -2.64151,-0.93152 -5.412783,-1.539834 -8.215919,-1.670652 -2.524365,0.14211 -5.096245,0.34958 -7.432288,1.399032 -2.378379,1.16196 -4.665716,2.45115 -6.23061,4.66189 -1.677532,2.1588 -3.223103,4.41144 -4.445444,6.86503 -0.913029,1.75426 -1.805085,3.52372 -2.614033,5.32779 z" />
      <path
         style="fill:#808080;fill-opacity:1;stroke:#808080;stroke-width:1.45216;stroke-opacity:1"
         d="m 385.54848,611.78447 c -3.59409,-0.2858 -24.17846,-2.16726 -45.74304,-4.18102 -24.31173,-2.2703 -57.41525,-4.15056 -87.1296,-4.9489 -53.36036,-1.43365 -68.7589,-3.07122 -109.96901,-11.69468 C 76.51705,577.10927 56.01587,569.46739 47.997937,555.65684 44.498033,549.62842 39.9344,534.42522 39.9344,528.79415 c 0,-5.5668 5.92097,-18.88434 11.329626,-25.48278 8.331922,-10.16476 25.262476,-23.41859 36.910617,-28.89494 16.328597,-7.67683 45.360187,-16.47301 59.623467,-18.06509 13.34063,-1.4891 16.18033,-2.55734 12.6304,-4.75131 -1.77432,-1.09659 -1.00496,-3.5649 4.61486,-14.80569 13.52315,-27.04906 27.44298,-42.12882 43.90263,-47.56099 9.67405,-3.19272 24.40338,-4.03012 35.87408,-2.03954 20.12197,3.4919 31.28786,10.46796 39.20289,24.49262 4.29843,7.61641 13.99641,14.81773 17.92482,13.31026 1.10864,-0.42543 3.58991,-7.81697 5.77149,-17.19291 2.10475,-9.04566 5.46797,-19.98646 7.47381,-24.31287 7.57157,-16.33109 21.32669,-32.2663 39.90634,-46.23117 17.31062,-13.01106 39.89056,-19.89519 62.30346,-18.99497 11.53,0.46311 14.77213,1.12475 18.49253,3.77391 6.2758,4.46877 13.49186,16.26168 17.85023,29.1719 l 3.68475,10.91484 8.10239,2.9005 8.10238,2.9005 10.70034,-11.26468 c 14.10937,-14.8535 30.45418,-27.001 43.68555,-32.4672 19.12297,-7.90018 52.47717,-11.98143 75.14995,-9.19542 16.17015,1.98697 18.75299,3.61349 34.71448,21.86113 13.54858,15.48912 20.44358,27.90096 28.25723,50.86647 5.21361,15.32358 6.15705,19.84905 6.0547,29.0432 -0.12781,11.47969 -3.21225,24.3399 -8.16739,34.05275 -3.92489,7.69342 -18.47677,22.75741 -29.84222,30.89239 -10.69479,7.65495 -38.68831,22.18446 -42.74206,22.18446 -5.85905,0 -1.63259,5.19933 9.03522,11.11501 23.99985,13.30874 39.61333,25.29988 42.79478,32.86632 3.07941,7.32378 1.08282,11.21005 -12.87366,25.05797 -10.96101,10.87575 -15.7481,14.4191 -27.87086,20.62972 -16.35844,8.38062 -30.22145,12.61493 -48.53219,14.82365 -25.49193,3.07495 -142.74691,5.43625 -168.45056,3.39228 z"
         id="path2"
         transform="scale(0.26458333)" />
    </g>
  </g>
</svg>
