<?xml version="1.0" encoding="UTF-8" standalone="no"?>
<!-- Created with Inkscape (http://www.inkscape.org/) -->

<svg
   width="62.847321mm"
   height="100mm"
   viewBox="0 0 62.84732 100"
   version="1.1"
   id="svg1"
   inkscape:version="1.4.2 (f4327f4, 2025-05-13)"
   sodipodi:docname="Hero.svg"
   inkscape:export-filename="Hero.png"
   inkscape:export-xdpi="320"
   inkscape:export-ydpi="320"
   xmlns:inkscape="http://www.inkscape.org/namespaces/inkscape"
   xmlns:sodipodi="http://sodipodi.sourceforge.net/DTD/sodipodi-0.dtd"
   xmlns="http://www.w3.org/2000/svg"
   xmlns:svg="http://www.w3.org/2000/svg">
  <sodipodi:namedview
     id="namedview1"
     pagecolor="#ffffff"
     bordercolor="#000000"
     borderopacity="0.25"
     inkscape:showpageshadow="2"
     inkscape:pageopacity="0.0"
     inkscape:pagecheckerboard="0"
     inkscape:deskcolor="#d1d1d1"
     inkscape:document-units="mm"
     inkscape:zoom="0.68862935"
     inkscape:cx="122.70752"
     inkscape:cy="315.8448"
     inkscape:window-width="1920"
     inkscape:window-height="991"
     inkscape:window-x="-9"
     inkscape:window-y="-9"
     inkscape:window-maximized="1"
     inkscape:current-layer="svg1" />
  <defs
     id="defs1" />
  <g
     id="g6"
     transform="matrix(1.0161312,0,0,1.0161312,-33.593381,-50.806558)">
    <path
       style="fill:#db2525;fill-opacity:1;stroke:#db2424;stroke-width:2.38149;stroke-opacity:1"
       d="m 44.085693,124.84645 c 2.716093,-1.67959 5.352721,-4.22768 5.971384,-5.77085 0.450377,-1.12342 0.741651,-4.08632 0.919707,-9.35554 0.251314,-7.43712 1.529773,-16.716773 2.410626,-17.497439 0.21814,-0.193325 0.96362,0.0875 1.710161,0.644226 l 1.323453,0.986946 -0.562815,2.891046 c -1.029315,5.287321 -1.63148,15.289981 -1.313925,21.825771 0.276627,5.69333 0.237606,6.2571 -0.417662,6.03425 -0.397539,-0.1352 -1.564409,-0.0879 -2.593045,0.10507 -1.028636,0.19298 -3.376209,0.45786 -5.21683,0.58861 -3.278517,0.2329 -3.323893,0.2237 -2.231054,-0.45209 z"
       id="path5" />
    <path
       style="fill:#db2525;fill-opacity:1;stroke:#db2424;stroke-width:8.23272;stroke-opacity:1"
       d="m 213.69894,337.15684 c -2.24821,-2.48425 -2.10957,-3.02252 2.23406,-8.6741 2.54707,-3.31402 4.87003,-5.78648 5.16215,-5.49436 0.55144,0.55143 -3.89898,16.81706 -4.60129,16.81706 -0.21888,0 -1.47659,-1.19187 -2.79492,-2.6486 z"
       id="path6"
       transform="scale(0.26458333)" />
    <path
       style="fill:#db2525;fill-opacity:1;stroke:#db2424;stroke-width:1.03214e-08;stroke-dasharray:none;stroke-opacity:1"
       id="path4"
       d="m 36.547333,128.1473 c 1.803786,-0.1694 3.61086,-0.26954 5.412653,-0.45804 1.989324,-0.21866 3.994768,-0.26572 5.996447,-0.30087 1.644029,-0.003 3.247483,-0.39861 4.875458,-0.58097 0.963444,-0.15852 1.959034,-0.0615 2.92538,-0.16267 0.179607,-0.0187 1.137925,-0.22731 1.309109,-0.26369 0.653007,-0.11428 1.275239,-0.23407 1.898325,-0.44254 0,0 -3.530266,-2.1471 -3.530266,-2.1471 v 0 c -0.614066,0.17546 -1.235059,0.28959 -1.865064,0.41117 -1.387131,0.26617 -2.791875,0.25117 -4.197365,0.40675 -1.608304,0.19552 -3.196921,0.5739 -4.828148,0.56189 -2.009497,0.0488 -4.023987,0.10661 -6.020695,0.32764 -1.815034,0.1845 -3.63691,0.3214 -5.463085,0.37163 z"
       inkscape:label="path4" />
    <path
       style="fill:#db2525;fill-opacity:1;stroke:none;stroke-width:1.5"
       id="path3"
       d="m 61.734525,80.045784 c -0.4424,0.27145 -0.99134,0.33222 -1.44746,0.56328 -0.17299,0.0876 -0.3184,0.2216 -0.48158,0.32638 -0.47573,0.30549 -0.52925,0.32017 -1.02749,0.583 -1.36439,0.63486 -2.28775,1.00463 -3.28629,2.18108 -1.10246,1.3334 -2.1636,2.69571 -3.10836,4.14564 -0.51365,0.93497 -1.0892,1.91417 -1.37734,2.95356 -0.15282,0.55128 -0.24859,1.33008 -0.33091,1.89201 -0.19966,2.26685 -0.73882,4.48567 -1.06406,6.73784 -0.25009,2.223466 -0.28292,4.465276 -0.32093,6.700526 -0.0412,1.93868 0.0327,3.87725 -0.0454,5.81501 -0.11706,0.89232 -0.0582,1.81036 -0.19046,2.70063 -0.12224,0.8227 -0.46011,1.58797 -0.79493,2.33931 -1.02685,1.99323 -2.81514,3.26768 -4.62518,4.49432 -1.28514,1.08936 -2.81782,1.72444 -4.352702,2.35817 -3.756564,1.55102 1.325752,-0.47852 -2.355937,0.98074 -1.122868,0.38028 -2.25952,0.7065 -3.407156,1.00116 0,0 3.157728,2.17167 3.157728,2.17167 v 0 c 1.150609,-0.31364 2.291345,-0.65508 3.416903,-1.05121 2.343464,-0.95079 4.758984,-1.82626 6.774664,-3.39763 1.8429,-1.29677 3.68397,-2.61137 4.75716,-4.65787 0.36244,-0.78648 0.73832,-1.59057 0.86816,-2.45775 0.13387,-0.89406 0.0535,-1.82256 0.17389,-2.71887 0.0925,-1.94 0.0341,-3.8841 0.0517,-5.82595 0.0125,-2.22301 0.0325,-4.45132 0.29018,-6.66232 0.29321,-2.255996 0.83628,-4.467636 1.07736,-6.727426 0.0956,-0.66485 0.14346,-1.15813 0.32409,-1.80374 0.28391,-1.01475 0.79717,-1.9808 1.304,-2.89502 0.93741,-1.43682 2.01041,-2.76805 3.11492,-4.07973 0.91063,-1.02151 2.00114,-1.48798 3.22257,-2.05424 0.95803,-0.52525 1.8661,-1.11229 2.94196,-1.38059 z" />
  </g>
  <g
     inkscape:label="Layer 1"
     inkscape:groupmode="layer"
     id="layer1"
     transform="translate(-33.060083,-49.999999)">
    <circle
       style="fill:#9b8865;fill-opacity:1;stroke:none;stroke-width:1.9935"
       id="path1"
       cx="65.515228"
       cy="65.241966"
       r="15.241967" />
    <ellipse
       style="fill:#9b8865;fill-opacity:1;stroke:none;stroke-width:1.42829"
       id="path2"
       cx="65.515228"
       cy="114.43541"
       rx="10.161312"
       ry="35.56459" />
    <rect
       style="fill:#9b8865;fill-opacity:1;stroke:none;stroke-width:1.10451"
       id="rect2"
       width="30.483934"
       height="3.0483935"
       x="-6.9839377"
       y="118.15083"
       transform="rotate(-40)" />
    <rect
       style="fill:#9b8865;fill-opacity:1;stroke:none;stroke-width:1.10451"
       id="rect2-8"
       width="30.483934"
       height="3.0483935"
       x="78.603081"
       y="32.476173"
       transform="rotate(40)" />
  </g>
</svg>
