<?xml version="1.0" encoding="UTF-8" standalone="no"?>
<!-- Created with Inkscape (http://www.inkscape.org/) -->

<svg
   width="100mm"
   height="100mm"
   viewBox="0 0 99.999997 100"
   version="1.1"
   id="svg1"
   inkscape:version="1.4.2 (f4327f4, 2025-05-13)"
   sodipodi:docname="Sun.svg"
   inkscape:export-filename="Sun.png"
   inkscape:export-xdpi="320"
   inkscape:export-ydpi="320"
   xmlns:inkscape="http://www.inkscape.org/namespaces/inkscape"
   xmlns:sodipodi="http://sodipodi.sourceforge.net/DTD/sodipodi-0.dtd"
   xmlns="http://www.w3.org/2000/svg"
   xmlns:svg="http://www.w3.org/2000/svg">
  <sodipodi:namedview
     id="namedview1"
     pagecolor="#ffffff"
     bordercolor="#000000"
     borderopacity="0.25"
     inkscape:showpageshadow="2"
     inkscape:pageopacity="0.0"
     inkscape:pagecheckerboard="0"
     inkscape:deskcolor="#d1d1d1"
     inkscape:document-units="mm"
     inkscape:zoom="0.48693448"
     inkscape:cx="87.280736"
     inkscape:cy="376.84741"
     inkscape:window-width="1920"
     inkscape:window-height="991"
     inkscape:window-x="-9"
     inkscape:window-y="-9"
     inkscape:window-maximized="1"
     inkscape:current-layer="layer1" />
  <defs
     id="defs1" />
  <g
     inkscape:label="Layer 1"
     inkscape:groupmode="layer"
     id="layer1"
     transform="translate(-54.722286,-77.313681)">
    <g
       id="g10"
       transform="matrix(0.91114559,0,0,1.0042736,4.8623163,-0.33040743)"
       style="stroke:#000000;stroke-opacity:1;stroke-width:1.56809131;stroke-dasharray:none">
      <ellipse
         style="fill:#ffa301;fill-opacity:1;stroke:#000000;stroke-width:1.56809131;stroke-opacity:1;stroke-dasharray:none"
         id="path1"
         cx="113.39183"
         cy="124.1499"
         rx="25"
         ry="24.999998" />
      <path
         style="fill:#ffa301;fill-opacity:1;stroke:#000000;stroke-width:1.56809131;stroke-opacity:1;stroke-dasharray:none"
         id="path2"
         d="m 124.99329,94.348997 c 1.98998,-1.932575 4.04335,-3.843525 6.29017,-5.47924 0.72131,-0.525126 1.47757,-1.000498 2.21635,-1.500746 3.27628,-1.971386 1.40553,-0.900623 4.64558,-2.642311 1.23799,-0.665483 2.39965,-1.337601 3.6851,-1.904371 0.53573,-0.236214 1.09099,-0.42541 1.63648,-0.638114 0,0 -3.10518,-2.079429 -3.10518,-2.079429 v 0 c -0.54463,0.225787 -1.09976,0.427749 -1.63388,0.677368 -1.2806,0.598479 -2.37368,1.275164 -3.61009,1.967161 -3.66927,2.05363 -0.8658,0.410982 -4.64804,2.680028 -0.75659,0.498824 -1.52888,0.974616 -2.26977,1.496473 -2.31451,1.630254 -4.4301,3.536844 -6.55886,5.395984 z" />
      <path
         style="fill:#ffa301;fill-opacity:1;stroke:#000000;stroke-width:1.56809131;stroke-opacity:1;stroke-dasharray:none"
         id="path3"
         d="m 146.21923,134.17622 c 4.43415,-2.27869 8.98654,-4.30254 13.60447,-6.1765 3.23451,-1.36507 1.68396,-0.71707 4.65053,-1.94666 0,0 -3.04593,-2.02971 -3.04593,-2.02971 v 0 c -2.89074,1.28301 -1.37723,0.61191 -4.54064,2.013 -4.6702,1.93326 -9.29555,3.96639 -13.93279,5.97467 z" />
      <path
         style="fill:#ffa301;fill-opacity:1;stroke:#000000;stroke-width:1.56809131;stroke-opacity:1;stroke-dasharray:none"
         id="path5"
         d="m 92.083357,150.61043 c -5.194969,0.13073 -10.392905,0.11468 -15.589247,0.14024 -6.346857,-0.0867 -12.655418,0.72572 -18.892978,1.82012 0,0 2.898371,2.02626 2.898371,2.02626 v 0 c 6.189641,-1.19299 12.471627,-1.97647 18.789141,-1.81603 5.32506,0.0258 10.651525,0.012 15.975312,0.14024 z" />
      <path
         style="fill:#ffa301;fill-opacity:1;stroke:#000000;stroke-width:1.56809131;stroke-opacity:1;stroke-dasharray:none"
         id="path6"
         d="m 83.408831,119.91794 c -2.60749,-4.3704 -6.633453,-7.04022 -10.76212,-9.81809 -4.495792,-2.63737 -8.939995,-5.43164 -13.812803,-7.33675 -1.348817,-0.52734 -2.741083,-0.93599 -4.111622,-1.40398 0,0 2.644251,2.05909 2.644251,2.05909 v 0 c 1.369626,0.47981 2.761136,0.90122 4.108884,1.43944 1.307584,0.52218 2.55887,1.176 3.849523,1.73872 0.222695,0.0971 0.475091,0.12323 0.688263,0.23975 1.157714,0.63283 2.276079,1.33514 3.414118,2.0027 3.883705,2.60693 8.076477,5.26494 10.380837,9.49108 z" />
      <path
         style="fill:#ffa301;fill-opacity:1;stroke:#000000;stroke-width:1.56809131;stroke-opacity:1;stroke-dasharray:none"
         id="path7"
         d="m 101.66131,97.096346 c -1.966375,-4.151569 -4.494484,-8.020907 -7.377022,-11.593065 -2.257681,-2.79781 -3.73856,-4.295196 -6.174727,-6.908771 0,0 -3.063803,-1.280829 -3.063803,-1.280829 v 0 c 1.042104,1.107297 2.109824,2.19103 3.126311,3.321888 4.000881,4.451038 7.673602,9.284891 9.992728,14.843694 z" />
      <path
         style="fill:#ffa301;fill-opacity:1;stroke:#000000;stroke-width:1.56809131;stroke-opacity:1;stroke-dasharray:none"
         id="path8"
         d="m 144.29208,112.27491 c 0.24371,-0.46927 0.4375,-0.96804 0.73114,-1.4078 0.81727,-1.22394 3.90376,-5.08893 4.57325,-6.05569 2.68831,-3.88196 4.80162,-8.111147 7.00007,-12.276911 0.6029,-1.086917 1.2058,-2.173836 1.8087,-3.260752 0,0 -2.98742,-1.712365 -2.98742,-1.712365 v 0 c -0.57329,1.105792 -1.14659,2.211584 -1.71988,3.317375 -2.12482,4.188881 -4.21764,8.395481 -6.99066,12.208933 -4.26667,5.86752 -1.07136,0.90133 -4.94592,5.90323 -0.32534,0.42001 -0.54229,0.91376 -0.81343,1.37064 z" />
      <path
         style="fill:#ffa301;fill-opacity:1;stroke:#000000;stroke-width:1.56809131;stroke-opacity:1;stroke-dasharray:none"
         id="path9"
         d="m 108.94127,159.08335 c -0.52067,0.0771 -1.04928,0.11237 -1.56202,0.2313 -4.61822,1.07128 -8.671232,3.63131 -12.664805,6.0644 -4.057827,2.84387 -7.706728,6.21532 -11.240563,9.67348 0,0 2.994678,1.83561 2.994678,1.83561 v 0 c 3.448262,-3.50844 7.054488,-6.89411 11.175585,-9.61378 3.999875,-2.37003 8.140315,-4.96878 12.803225,-5.78409 0.5335,-0.0933 1.07937,-0.0909 1.61905,-0.13636 z" />
      <path
         style="fill:#ffa301;fill-opacity:1;stroke:#000000;stroke-width:1.56809131;stroke-opacity:1;stroke-dasharray:none"
         id="path10"
         d="m 125.11911,152.36442 c 7.41554,4.18078 14.79062,8.4297 22.21149,12.60182 1.25836,0.70564 2.51677,1.41122 3.77515,2.11687 0,0 4.3339,-1.1236 4.3339,-1.1236 v 0 c -1.26503,-0.70349 -2.53005,-1.40698 -3.79497,-2.11062 -7.37575,-4.10948 -14.70331,-8.32084 -21.95136,-12.65306 z" />
    </g>
  </g>
</svg>
